<svg xmlns="http://www.w3.org/2000/svg" version="1.1" xmlns:xlink="http://www.w3.org/1999/xlink" xmlns:svgjs="http://svgjs.dev/svgjs" width="2000" height="2242" viewBox="0 0 2000 2242"><g transform="matrix(1,0,0,1,-3.115264797507507,0)"><svg viewBox="0 0 321 360" data-background-color="#ffffff" preserveAspectRatio="xMidYMid meet" height="2242" width="2000" xmlns="http://www.w3.org/2000/svg" xmlns:xlink="http://www.w3.org/1999/xlink"><g id="tight-bounds" transform="matrix(1,0,0,1,0.5,0)"><svg viewBox="0 0 320 360" height="360" width="320"><g><svg></svg></g><g><svg viewBox="0 0 320 360" height="360" width="320"><g><path d="M20.961 227.22l3.726 4.658-1.863-6.056c-0.466-2.795-3.726 0.466-1.863 1.398M25.153 224.425c1.397 2.329 2.795 4.658 2.795 6.987 0 3.261 2.795 4.658 5.123 5.589-3.261-3.726-5.124-13.974-7.918-12.576M204.017 26.929c7.918 0 15.371-0.932 23.756 0.931 20.495 5.124 37.729 15.371 49.374 29.811l32.606 52.169c1.397 13.042 4.192 27.482 3.726 43.319 3.261 0 2.795-4.658 6.521-5.59-3.726 9.316-5.59 20.961-6.521 34.469-2.329-7.453 0-18.632 0.466-24.687-3.261 5.124-5.124 1.397-5.124-0.932 0.466-3.726-1.397-3.261-2.795-4.658-5.124-4.658-8.384-9.782-12.11-17.7 2.329-6.055 2.795-14.905-4.658-19.563-2.329-1.397-5.124-3.726-6.521-7.453-1.863-5.124-5.124-11.179-4.193-19.097 0.466-2.329-6.987 5.124-11.179 1.863-18.166-12.576-36.332-27.016-58.224-39.127-11.645 0-20.029-4.192-24.221-9.316-3.726-4.658-0.932-10.713 4.658-11.179 3.261 0 6.987-0.932 9.782 0.932 0.466-1.863 2.329-4.192 4.657-4.192M157.904 16.215l0.932 0.466c4.658 0.932 6.987 7.453 12.11 5.124 0 3.261 0.466 6.521-0.466 8.85-1.397 3.726-5.59 3.726-8.85 3.726-31.208-1.863-49.374 11.179-68.471 22.358-5.124 3.261-10.713 5.59-14.906 9.782-20.029 18.632-41.921 35.866-47.045 70.335l-4.192 38.195c-0.466 4.192-5.124 8.384-4.192 13.508l3.26 22.824c-3.261-3.261-5.124 0.932-4.192 2.795 0.466 1.397 2.329 6.055 5.124 1.863 3.726 6.987 7.453 20.495 12.576 26.55 15.837 18.632 36.332 35.4 53.101 52.169 4.192-0.932 7.453-0.932 8.384-3.727 1.397 2.795-1.397 5.59-3.726 6.056 7.453 4.658 15.837 8.85 27.016 9.781 14.44 0.932 27.948 3.261 40.524 6.522 6.521-1.863 13.042-2.795 20.029-3.261 2.329 0 3.726-3.726 6.521-4.658l0.466-4.658c2.795 4.192 2.329-1.397 0.466-4.192 3.261 2.795 4.192 5.124 5.589 6.987 0-1.397 3.726-6.521 3.727-0.466l0.931-6.055c1.397-0.932 1.863 5.124 3.261 0.931 1.397-4.192 4.192-0.932 6.987-2.329-0.932 1.863-0.466 5.59 2.794 3.261l3.727-3.261c2.329 5.59 6.055 3.261 7.918 2.329 20.495-13.042 40.99-28.413 60.553-43.784l-0.466 6.055 2.329-7.453c2.329 2.329 4.192 0.466 5.124-0.931 2.795-4.658 6.521-9.316 12.577-13.508-7.453 20.029-16.303 35.866-27.482 48.908l-4.658 5.59c0 3.261-0.932 7.453-4.658 7.918-1.863 0.466-5.59-0.932-8.384 1.863-1.397 1.863 3.261 5.59-0.466 2.795-3.261-2.329-6.521 0-10.248 0.932-2.795 0.932 1.863 3.726 2.795 5.589 0.932 1.863 1.863 3.726 1.398 6.056l-5.124-5.59c-6.055 3.261-9.782 9.316-14.906 13.974-2.329 1.863-1.397 5.124-1.397 7.918-3.261 0-6.987-0.932-8.85 0.932-1.397 1.863-0.932 4.658-0.932 7.453-4.658-0.466-5.124-7.453-9.315-6.056-4.192 0.932-8.85 1.397-12.577 3.727 2.795 5.59-4.658 2.329-3.726 3.26-6.987-4.192-13.042-7.453-20.495-4.658-15.837-5.124-35.4-2.795-49.84-0.931 0-2.329 0.466-4.658-0.466-5.124-0.932 2.329-3.726 1.397-3.26 1.397-8.85-6.055-17.7-9.782-27.016-14.905-8.384 0.932-16.303-3.261-18.632-5.59-6.521-6.055-13.974-2.795-20.029-4.192-13.042-3.261-17.7-16.769-19.098-26.084-0.932-4.658-4.658-6.521-6.055-6.056-6.055-19.563-15.371-37.263-22.824-55.429-1.863-4.658-1.397-9.316-1.397-14.44 2.329 0.932 4.658 0.466 4.192-2.794-2.329-15.371-7.918-27.016-13.974-38.195 3.261-15.837 3.726-34.469 11.179-48.443 6.521-12.576 18.632-19.098 27.016-29.811 2.795-3.726 2.795-8.85 5.59-12.11 9.316-9.316 18.632-19.098 28.879-27.482 4.658-3.726 10.247 0 17.234-1.397 2.329-8.384 11.645-15.837 20.495-13.508 3.726 0.932 11.179-8.85 13.508-9.782 3.726-1.397 1.863 3.726 1.863 6.987 8.85-6.987 20.961-10.713 32.14-14.906" fill="#0789e7" fill-rule="nonzero" stroke="none" stroke-width="1" stroke-linecap="butt" stroke-linejoin="miter" stroke-miterlimit="10" stroke-dasharray="" stroke-dashoffset="0" font-family="none" font-weight="none" font-size="none" text-anchor="none" style="mix-blend-mode: normal" data-fill-palette-color="tertiary"></path></g><g transform="matrix(1,0,0,1,91.02459016393443,90)"><svg viewBox="0 0 137.95081967213113 180" height="180" width="137.95081967213113"><g><svg viewBox="0 0 137.95081967213113 180" height="180" width="137.95081967213113"><g><svg viewBox="0 0 137.95081967213113 180" height="180" width="137.95081967213113"><g id="textblocktransform"><svg viewBox="0 0 137.95081967213113 180" height="180" width="137.95081967213113" id="textblock"><g><svg viewBox="0 0 137.95081967213113 180" height="180" width="137.95081967213113"><g transform="matrix(1,0,0,1,0,0)"><svg width="137.95081967213113" viewBox="0.5 -20.75 18.7 24.400000000000002" height="180" data-palette-color="#4a76d5"><g class="wordmark-text-0" data-fill-palette-color="primary" id="text-0"><path d="M11.55-0.85L11.1 2.2Q11.05 2.2 10.83 2.27 10.6 2.35 10.33 2.5 10.05 2.65 9.83 2.83 9.6 3 9.6 3.15L9.6 3.15 9.6 3.2Q9.6 3.3 9.7 3.4L9.7 3.4 9.45 3.65Q9.25 3.55 9.25 3.5L9.25 3.5Q9.25 3.45 9.28 3.45 9.3 3.45 9.3 3.4L9.3 3.4 9.25 3.4Q9.2 3.4 9.13 3.45 9.05 3.5 8.95 3.55L8.95 3.55Q8.65 3.45 8.53 3.33 8.4 3.2 8.3 3.08 8.2 2.95 8.05 2.85 7.9 2.75 7.6 2.75L7.6 2.75Q7.7 2.9 7.85 3.03 8 3.15 8 3.55L8 3.55 8 3.65Q7.85 3.65 7.68 3.5 7.5 3.35 7.35 3.15L7.35 3.15Q7.15 3.15 7.03 3.33 6.9 3.5 6.8 3.65L6.8 3.65Q6.65 3.4 6.2 3.05 5.75 2.7 5.5 2.45L5.5 2.45 5.6 2.2 5.5 2.2Q5.5 2.05 5.4 2.02 5.3 2 5.15 1.93 5 1.85 4.9 1.7 4.8 1.55 4.8 1.25L4.8 1.25Q4.8 0.85 5.1-0.05L5.1-0.05Q5-0.35 5-0.35L5-0.35Q5-0.55 5.15-0.6 5.3-0.65 5.5-0.73 5.7-0.8 5.85-0.95 6-1.1 6-1.5L6-1.5Q6-3.5 6.13-4.3 6.25-5.1 6.4-5.45 6.55-5.8 6.68-6.03 6.8-6.25 6.8-7.1L6.8-7.1Q6.6-6.9 6.5-6.9L6.5-6.9Q6.45-6.9 6.35-7L6.35-7 6.45-10.05Q6.55-10.4 6.65-11.03 6.75-11.65 6.75-11.7L6.75-11.7 7.35-13.05 7.35-13.5 7.4-13.7Q7.45-14.35 7.58-14.7 7.7-15.05 7.8-15.28 7.9-15.5 8-15.78 8.1-16.05 8.2-16.55L8.2-16.55 8.2-17.05 6.25-16.8 5-16.5 4.65-16.5Q4.6-16.5 4.5-16.43 4.4-16.35 4.3-16.35L4.3-16.35 4.3-16.4Q4-16.4 4-16.5 4-16.6 3.8-16.6L3.8-16.6Q3.75-16.6 3.7-16.57 3.65-16.55 3.55-16.55L3.55-16.55 3.2-16.55Q3.15-16.55 3.03-16.48 2.9-16.4 2.8-16.4L2.8-16.4 2.75-16.4Q1.9-16.4 1.68-16.55 1.45-16.7 1.5-16.65L1.5-16.65 1.5-16.9Q0.9-16.9 0.7-17.57 0.5-18.25 0.5-18.7L0.5-18.7 0.85-19Q0.95-19.05 0.95-19.05L0.95-19.05Q1.2-19.05 1.35-19.03 1.5-19 1.7-19L1.7-19Q2.2-19 2.4-19.05 2.6-19.1 2.8-19.35L2.8-19.35 3.2-19.35Q3.95-19.35 4.4-19.53 4.85-19.7 5.55-19.7L5.55-19.7Q5.75-19.7 6.18-19.63 6.6-19.55 6.8-19.55L6.8-19.55 6.85-19.55 6.95-19.6Q7-19.55 7.1-19.55L7.1-19.55Q7.3-19.55 7.5-19.68 7.7-19.8 7.75-19.8L7.75-19.8Q7.8-19.75 7.8-19.75L7.8-19.75Q8-19.75 8.47-20.08 8.95-20.4 9.3-20.4L9.3-20.4Q9.45-20.4 9.63-20.38 9.8-20.35 10.05-20.35L10.05-20.35Q10.45-20.35 10.9-20.5L10.9-20.5 11.15-20.5Q11.75-20.5 12.33-20.58 12.9-20.65 13.5-20.65L13.5-20.65 13.75-20.65Q13.85-20.65 14.08-20.7 14.3-20.75 14.7-20.75L14.7-20.75Q14.85-20.75 15-20.75 15.15-20.75 15.4-20.7L15.4-20.7 16.65-20.7Q17.25-20.7 17.78-20.63 18.3-20.55 19-20.2L19-20.2Q18.9-20.1 18.9-19.95L18.9-19.95Q18.9-19.85 18.98-19.43 19.05-19 19.05-18.9L19.05-18.9Q19.1-18.9 19.07-18.93 19.05-18.95 19.1-18.95L19.1-18.95Q19.15-18.95 19.2-18.9L19.2-18.9Q18.35-18.3 17.4-18.13 16.45-17.95 15.8-17.8L15.8-17.8Q15.7-17.8 15-17.65 14.3-17.5 12.35-17.1L12.35-17.1 13.15-16.65Q12.9-16.4 12.75-15.98 12.6-15.55 12.6-15.2L12.6-15.2 13.05-15.35 12.5-14.15 12.5-12.15Q12.15-12 12.15-11.5L12.15-11.5 12.4-11.65 12.5-11.65Q12.6-11.65 12.6-11.4L12.6-11.4 12.6-11.25Q12.6-11.15 12.55-10.95 12.5-10.75 12.5-10.6L12.5-10.6 12.05-10.25 12.05-9.45Q12.25-9.45 12.25-9.65L12.25-9.65Q12.25-9.8 12.2-9.83 12.15-9.85 12.15-9.95L12.15-9.95Q12.15-10.25 12.4-10.25L12.4-10.25Q12.6-10.25 12.6-10.15L12.6-10.15 12.6-9.75 12.6-9.45Q12.6-9.15 12.5-9.05L12.5-9.05 12.3-9 12.25-8.65 12.05-8.75Q11.95-8.75 11.93-8.47 11.9-8.2 11.85-7.85 11.8-7.5 11.8-7.18 11.8-6.85 11.8-6.8L11.8-6.8Q11.8-6.6 11.85-6.45L11.85-6.45 11.95-6.55Q11.95-6.65 12-6.8 12.05-6.95 12.05-7L12.05-7 11.95-7.1 11.95-7.3Q11.95-7.4 11.98-7.53 12-7.65 12.25-7.65L12.25-7.65Q12.4-7.65 12.4-7.3L12.4-7.3Q12.4-7.1 12.33-7 12.25-6.9 12.25-6.65L12.25-6.65Q12.25-6.55 12.28-6.48 12.3-6.4 12.3-6.3L12.3-6.3Q12.3-6.2 12.23-6.08 12.15-5.95 12.15-5.85L12.15-5.85Q12.15-5.75 12.2-5.48 12.25-5.2 12.25-5.05L12.25-5.05Q12.25-4.9 12.15-4.73 12.05-4.55 11.95-4.35L11.95-4.35 11.65-3.9 11.65-1.95Q11.5-1.7 11.5-1.45L11.5-1.45Q11.5-1.3 11.53-1.13 11.55-0.95 11.55-0.85L11.55-0.85ZM11.3-9.9L11.2-9.55 11.55-9.5Q11.55-10.05 11.6-10.73 11.65-11.4 11.65-11.95L11.65-11.95 11.55-12.45Q11.45-12.4 11.4-12.1 11.35-11.8 11.3-11.43 11.25-11.05 11.23-10.7 11.2-10.35 11.2-10.25L11.2-10.25 11.3-9.9ZM11.15-8.1L11.15-5.8Q11.45-7.2 11.45-8.55L11.45-8.55 11.45-9.05 11.15-8.1ZM6.75-5.1L6.8-5.1Q6.75-5.05 6.75-5L6.75-5Q6.75-4.9 6.85-4.85 6.95-4.8 7.05-4.7L7.05-4.7 7.05-4.85Q7.05-4.95 7.03-5.1 7-5.25 6.85-5.25L6.85-5.25Q6.6-5.25 6.4-4.95L6.4-4.95Q6.6-5.1 6.75-5.1L6.75-5.1ZM6.8-5.65L6.8-5.65Q6.7-5.65 6.7-5.5L6.7-5.5Q6.7-5.35 6.8-5.35L6.8-5.35Q6.9-5.35 6.9-5.45L6.9-5.45Q6.9-5.55 6.8-5.65Z" fill="#4a76d5" data-fill-palette-color="primary"></path></g></svg></g></svg></g></svg></g></svg></g></svg></g></svg></g></svg></g><defs></defs></svg><rect width="320" height="360" fill="none" stroke="none" visibility="hidden"></rect></g></svg></g></svg>