{
  "accessors": [
    {
      "bufferView": 2,
      "componentType": 5126,
      "count": 25539,
      "max": [
        1.365557074546814,
        1.9443987607955933,
        2.1173596382141113
      ],
      "min": [
        -1.365557074546814,
        -1.3752923011779785,
        -1.063904047012329
      ],
      "type": "VEC3"
    },
    {
      "bufferView": 2,
      "byteOffset": 306468,
      "componentType": 5126,
      "count": 25539,
      "max": [
        0.9999833703041077,
        0.999998927116394,
        0.9999766945838928
      ],
      "min": [
        -0.9999833703041077,
        -0.9998492002487183,
        -0.9999731183052063
      ],
      "type": "VEC3"
    },
    {
      "bufferView": 1,
      "componentType": 5126,
      "count": 25539,
      "max": [
        1.0697180032730103,
        0.9959589242935181
      ],
      "min": [
        -0.1094982922077179,
        0.004042595624923706
      ],
      "type": "VEC2"
    },
    {
      "bufferView": 0,
      "componentType": 5125,
      "count": 148764,
      "type": "SCALAR"
    }
  ],
  "asset": {
    "extras": {
      "author": "riach (https://sketchfab.com/riach)",
      "license": "SKETCHFAB Standard (https://sketchfab.com/licenses)",
      "source": "https://sketchfab.com/3d-models/free-human-skull-6a3c0f1b165a489db40c11912efe59c5",
      "title": "Free Human Skull"
    },
    "generator": "Sketchfab-16.12.0",
    "version": "2.0"
  },
  "bufferViews": [
    {
      "buffer": 0,
      "byteLength": 595056,
      "name": "floatBufferViews",
      "target": 34963
    },
    {
      "buffer": 0,
      "byteLength": 204312,
      "byteOffset": 595056,
      "byteStride": 8,
      "name": "floatBufferViews",
      "target": 34962
    },
    {
      "buffer": 0,
      "byteLength": 612936,
      "byteOffset": 799368,
      "byteStride": 12,
      "name": "floatBufferViews",
      "target": 34962
    }
  ],
  "buffers": [
    {
      "byteLength": 1412304,
      "uri": "scene.bin"
    }
  ],
  "extensionsUsed": [
    "KHR_materials_specular"
  ],
  "materials": [
    {
      "doubleSided": true,
      "extensions": {
        "KHR_materials_specular": {
          "specularColorFactor": [
            1.0,
            1.0,
            1.0
          ],
          "specularFactor": 0.6948497893219999
        }
      },
      "name": "01_-_Default",
      "pbrMetallicRoughness": {
        "baseColorFactor": [
          0.002388993838743363,
          0.002388993838743363,
          0.002388993838743363,
          1.0
        ],
        "metallicFactor": 0.6401282308520146,
        "roughnessFactor": 0.20786744006469304
      }
    }
  ],
  "meshes": [
    {
      "name": "Quad Sphere.001_01 - Default_0",
      "primitives": [
        {
          "attributes": {
            "NORMAL": 1,
            "POSITION": 0,
            "TEXCOORD_0": 2
          },
          "indices": 3,
          "material": 0,
          "mode": 4
        }
      ]
    }
  ],
  "nodes": [
    {
      "children": [
        1
      ],
      "matrix": [
        1.0,
        0.0,
        0.0,
        0.0,
        0.0,
        2.220446049250313e-16,
        -1.0,
        0.0,
        0.0,
        1.0,
        2.220446049250313e-16,
        0.0,
        0.0,
        0.0,
        0.0,
        1.0
      ],
      "name": "Sketchfab_model"
    },
    {
      "children": [
        2
      ],
      "matrix": [
        1.0,
        0.0,
        0.0,
        0.0,
        0.0,
        0.0,
        1.0,
        0.0,
        0.0,
        -1.0,
        0.0,
        0.0,
        0.0,
        0.0,
        0.0,
        1.0
      ],
      "name": "c22fdc0bbb6c4a15a77ef2a32be63b58.fbx"
    },
    {
      "children": [
        3
      ],
      "name": "RootNode"
    },
    {
      "children": [
        4
      ],
      "matrix": [
        37.73584747314453,
        0.0,
        0.0,
        0.0,
        0.0,
        -4.498463567870203e-06,
        -37.73584747314427,
        0.0,
        0.0,
        37.73584747314427,
        -4.498463567870203e-06,
        0.0,
        0.0,
        21.276607513427734,
        61.68366241455078,
        1.0
      ],
      "name": "Quad Sphere.001"
    },
    {
      "children": [
        5
      ],
      "matrix": [
        1.0,
        0.0,
        -0.0,
        0.0,
        0.0,
        1.0,
        0.0,
        0.0,
        0.0,
        0.0,
        1.0,
        0.0,
        0.0,
        1.515028476715088,
        -0.6479107141494751,
        1.0
      ],
      "name": "Object_4"
    },
    {
      "mesh": 0,
      "name": "Quad Sphere.001_01 - Default_0"
    }
  ],
  "scene": 0,
  "scenes": [
    {
      "name": "Sketchfab_Scene",
      "nodes": [
        0
      ]
    }
  ]
}
